<?xml version="1.0" encoding="utf-8"?>
<!-- Generator: Adobe Illustrator 25.4.1, SVG Export Plug-In . SVG Version: 6.00 Build 0)  -->
<svg version="1.1" id="Calque_1" xmlns="http://www.w3.org/2000/svg" xmlns:xlink="http://www.w3.org/1999/xlink" x="0px" y="0px"
	 viewBox="0 0 188 188" style="enable-background:new 0 0 188 188;" xml:space="preserve">
<style type="text/css">
    .st0{fill:#317888;}
    .st1{fill:#106A64;}
</style>
	<circle class="st0" cx="94" cy="94" r="94"/>
	<path class="st1" d="M11.8,85.5L3.3,73.7l-0.2-0.1l2-8.7L8,57l1.6-3.9l2.1-3.7l2.3-4.1l2.4-3.7l4.2-5.8l6.5-6.8l3.1-3l3.8-3.2l8-5.9
    l6.4-4l7.8-3.4l6.5-2.6l8.5-2.6L84.5,2l13.3-0.4L109,3.2l9.2,2.8l9.8,3.6l5.5,3.5l-0.8,4.3l-10.2,3l-7.3,11l-12.6-1.1l-3.3,9
    L73,35.2l5.7,11.4l13,16.1l13.3-6.6l14.2,12.4l5.5-18.1l29.3,19.8l-4.6,10.6l-13.9-3.6l-2.1,15.3L117,96.9l14.6,12.9l-6.5,29.9
    l-3.7,2.2l-5.4,2.7l-4.3,2.1l-4.4,1.5l-13.8,0l1.1-13.8l-11.4,10.7l-11.8-17l-9.5,4.7l-8.6-0.5l-10.7-8.9l-2.4,3.3L26.8,121
    l-11.3-12.7l6.2,2.5L13,93.1L11.8,85.5z"/>
</svg>