<?xml version="1.0" encoding="utf-8"?>
<!-- Generator: Adobe Illustrator 25.4.1, SVG Export Plug-In . SVG Version: 6.00 Build 0)  -->
<svg version="1.1" id="Calque_1" xmlns="http://www.w3.org/2000/svg" xmlns:xlink="http://www.w3.org/1999/xlink" x="0px" y="0px"
	 viewBox="0 0 238 238" style="enable-background:new 0 0 238 238;" xml:space="preserve">
<style type="text/css">
	.st0{fill:#106A64;}
	.st1{fill:#317888;}
</style>
<circle class="st0" cx="119" cy="119" r="119"/>
<path class="st1" d="M120.4,15.2L129.6,4V3.7l8.9-0.3l8.5,0.7l4.2,0.5l4.1,1.1l4.5,1.1l4.2,1.4l6.7,2.5l8.3,4.5l3.7,2.2l4.1,2.8
	l7.8,6.2l5.5,5.1l2.5,2.9L208,40l7,8l8,13.1l3.5,6.9l3,7l-4.3,12.6l-0.3,9.6l-1,10.4l4.5,6.5l-6.3,28.7l-14.9-7.4l-7.7-34.6
	l-2.2-12.5l-9.6-0.9l-2.8-26.4l-9.5,8.5l-12.2,16.8l9.8,11.1l-8.3,16.9l18.9,0.6l-11.5,33.5l-11.4-1.6l-0.1-14.3l-15.3,2l-8.5-14.7
	l-4.9,34.8l-32.4-0.4l-5-18.5l-5.7,14l-1.5-22.1l-9.8,12.7l-23-6.5l-2.1-38.4l20.7-14.7l21.7,3.2l-7.1-8L86,67.4L65.3,45.6
	l-5.4-14.1L62,17.2l37.4,7.5l-0.8,6.7l31,0.4L120.4,15.2z"/>
<path class="st1" d="M118,228l-14.5,9.5l-12-2.5l-10-3l-12-4l-9-5l-6.5-4l-7.5-5.5l-7-5l-5.5-6L24.5,192L17,180.5V173l23,14.5
	l11-5.5l-14-15.5l23,4l23.5,7l-10,4.5l19.5,4v11.5l14.5,6l-4,11.5L118,228z"/>
</svg>
