<svg width="70" height="70" viewBox="0 0 70 70" fill="none" xmlns="http://www.w3.org/2000/svg">
<circle cx="35" cy="35" r="35" fill="#106A64"/>
<path d="M57.0916 57.1859C62.0982 54.1979 64.3804 48.7993 62.1892 45.1278C59.9979 41.4563 54.163 40.9023 49.1564 43.8903C44.1499 46.8784 41.8676 52.277 44.0588 55.9485C46.2501 59.62 52.0851 60.174 57.0916 57.1859Z" fill="#1B403D"/>
<path d="M56.7327 56.706C61.7393 53.7179 64.0216 48.3193 61.8303 44.6478C59.6391 40.9763 53.8041 40.4223 48.7975 43.4104C43.791 46.3984 41.5087 51.7971 43.7 55.4685C45.8912 59.14 51.7262 59.694 56.7327 56.706Z" fill="#1C5955"/>
<path d="M55.0126 53.7376C59.3516 51.1479 61.4964 46.7487 59.8032 43.9117C58.11 41.0746 53.2199 40.8741 48.8808 43.4637C44.5418 46.0534 42.397 50.4526 44.0902 53.2896C45.7835 56.1267 50.6736 56.3272 55.0126 53.7376Z" fill="#2A867F"/>
<path d="M44.0916 40.1859C49.0982 37.1979 51.3804 31.7993 49.1892 28.1278C46.9979 24.4563 41.163 23.9023 36.1564 26.8903C31.1499 29.8784 28.8676 35.277 31.0588 38.9485C33.2501 42.62 39.0851 43.174 44.0916 40.1859Z" fill="#1B403D"/>
<path d="M43.7327 39.706C48.7393 36.7179 51.0216 31.3193 48.8303 27.6478C46.6391 23.9763 40.8041 23.4223 35.7975 26.4104C30.791 29.3984 28.5087 34.797 30.7 38.4685C32.8912 42.14 38.7262 42.694 43.7327 39.706Z" fill="#1C5955"/>
<path d="M42.0126 36.7376C46.3516 34.1479 48.4964 29.7487 46.8032 26.9117C45.11 24.0746 40.2199 23.8741 35.8808 26.4637C31.5418 29.0534 29.397 33.4526 31.0902 36.2896C32.7835 39.1267 37.6736 39.3272 42.0126 36.7376Z" fill="#2A867F"/>
<path d="M11.6244 23.7376C10.8479 27.4425 12.4406 30.9774 15.1817 31.6331C17.9229 32.2887 20.7745 29.8167 21.551 26.1118C22.3275 22.4069 20.7348 18.8719 17.9936 18.2163C15.2525 17.5607 12.4009 20.0327 11.6244 23.7376Z" fill="#1B403D"/>
<path d="M12.0148 23.7895C11.2383 27.4944 12.831 31.0293 15.5722 31.685C18.3133 32.3406 21.165 29.8686 21.9414 26.1637C22.7179 22.4587 21.1252 18.9238 18.3841 18.2682C15.6429 17.6126 12.7913 20.0846 12.0148 23.7895Z" fill="#1C5955"/>
<path d="M14.2082 24.3436C13.5353 27.5545 14.7069 30.5682 16.825 31.0748C18.9432 31.5814 21.2059 29.3891 21.8788 26.1782C22.5518 22.9672 21.3802 19.9536 19.262 19.447C17.1438 18.9403 14.8812 21.1326 14.2082 24.3436Z" fill="#2A867F"/>
<path d="M48.5285 9.62203C45.9291 9.25718 43.4013 10.5686 42.8824 12.5512C42.3636 14.5338 44.0501 16.4367 46.6494 16.8016C49.2488 17.1664 51.7766 15.855 52.2955 13.8724C52.8144 11.8898 51.1278 9.98688 48.5285 9.62203Z" fill="#1B403D"/>
<path d="M48.4839 9.90233C45.8845 9.53749 43.3567 10.8489 42.8378 12.8315C42.3189 14.8141 44.0055 16.717 46.6048 17.0819C49.2042 17.4467 51.732 16.1353 52.2509 14.1527C52.7698 12.1701 51.0832 10.2672 48.4839 9.90233Z" fill="#1C5955"/>
<path d="M48.0478 11.4902C45.7951 11.174 43.6438 12.1596 43.2429 13.6916C42.8419 15.2236 44.3431 16.7219 46.5958 17.0381C48.8486 17.3543 50.9999 16.3687 51.4008 14.8367C51.8018 13.3047 50.3006 11.8064 48.0478 11.4902Z" fill="#2A867F"/>
<path d="M25.0219 50.622C22.4226 50.2572 19.8947 51.5686 19.3758 53.5512C18.857 55.5338 20.5435 57.4367 23.1428 57.8016C25.7422 58.1664 28.27 56.855 28.7889 54.8724C29.3078 52.8899 27.6212 50.9869 25.0219 50.622Z" fill="#1B403D"/>
<path d="M24.9773 50.9023C22.3779 50.5375 19.8501 51.8489 19.3312 53.8315C18.8123 55.8141 20.4989 57.717 23.0982 58.0819C25.6976 58.4467 28.2254 57.1353 28.7443 55.1527C29.2632 53.1702 27.5766 51.2672 24.9773 50.9023Z" fill="#1C5955"/>
<path d="M24.5412 52.4903C22.2885 52.1741 20.1372 53.1597 19.7363 54.6916C19.3353 56.2236 20.8365 57.7219 23.0893 58.0381C25.342 58.3543 27.4933 57.3687 27.8942 55.8367C28.2952 54.3047 26.794 52.8065 24.5412 52.4903Z" fill="#2A867F"/>
</svg>
