<svg width="66" height="66" viewBox="0 0 66 66" fill="none" xmlns="http://www.w3.org/2000/svg">
<circle cx="33" cy="33" r="33" fill="#106A64"/>
<path d="M16.8562 12.2964C12.4337 16.0958 11.1072 21.8049 13.8934 25.0481C16.6797 28.2913 22.5235 27.8404 26.946 24.0409C31.3685 20.2415 32.695 14.5324 29.9087 11.2892C27.1225 8.04602 21.2787 8.49695 16.8562 12.2964Z" fill="#1B403D"/>
<path d="M17.2918 12.708C12.8692 16.5074 11.5428 22.2165 14.329 25.4597C17.1153 28.7029 22.9591 28.2519 27.3816 24.4525C31.8041 20.6531 33.1306 14.9439 30.3443 11.7008C27.5581 8.45761 21.7143 8.90854 17.2918 12.708Z" fill="#1C5955"/>
<path d="M19.4937 15.3389C15.6609 18.6317 14.2991 23.3326 16.4521 25.8387C18.6051 28.3448 23.4576 27.707 27.2904 24.4142C31.1233 21.1214 32.4851 16.4204 30.332 13.9143C28.179 11.4082 23.3266 12.046 19.4937 15.3389Z" fill="#2A867F"/>
<path d="M40.0617 55.3798C43.8707 55.7594 47.3566 53.7379 47.8475 50.8647C48.3384 47.9914 45.6485 45.3545 41.8395 44.9749C38.0304 44.5953 34.5446 46.6168 34.0537 49.49C33.5627 52.3632 36.2526 55.0002 40.0617 55.3798Z" fill="#1B403D"/>
<path d="M40.0895 54.9752C43.8986 55.3548 47.3844 53.3333 47.8753 50.4601C48.3662 47.5868 45.6764 44.9499 41.8673 44.5703C38.0582 44.1907 34.5724 46.2122 34.0815 49.0854C33.5906 51.9586 36.2805 54.5956 40.0895 54.9752Z" fill="#1C5955"/>
<path d="M40.5123 52.6728C43.8135 53.0018 46.7971 51.4686 47.1765 49.2484C47.5558 47.0282 45.1872 44.9616 41.886 44.6326C38.5848 44.3036 35.6012 45.8368 35.2218 48.057C34.8425 50.2772 37.2111 52.3438 40.5123 52.6728Z" fill="#2A867F"/>
</svg>
