<?xml version="1.0" encoding="utf-8"?>
<!-- Generator: Adobe Illustrator 25.4.1, SVG Export Plug-In . SVG Version: 6.00 Build 0)  -->
<svg version="1.1" id="Calque_1" xmlns="http://www.w3.org/2000/svg" xmlns:xlink="http://www.w3.org/1999/xlink" x="0px" y="0px"
	 viewBox="0 0 172 171.6" style="enable-background:new 0 0 172 171.6;" xml:space="preserve">
<style type="text/css">
	.st0{fill:#A4959A;}
	.st1{fill:#BDB6B8;fill-opacity:0.49;}
</style>
<circle class="st0" cx="86" cy="86" r="86"/>
<path class="st1" d="M136.4,138.5l0.6,12l0.1,0.1l-5.3,5.1l-5.6,4.3l-2.8,2l-3.1,1.6l-3.4,1.8l-3.3,1.5l-5.5,2.2l-7.5,1.9l-3.5,0.7
	h-2.7l-6,0.5h-7l-5.5-0.5l-6-0.7l-7-1.9l-6-2.2l-8.7-3.9l-8.8-5l-9.5-6.5l-2.9-5.2l-5.2-6.9l-5.9-3L30,122v11.5l10.6-3.5l8.3,6.4
	l6.3-4.8l16.3,14.6l1.1-10.5l-1.9-17l-12.1-1.3l-4.3-14.9l-11.9,10.1L31,85.8l7.9-5.3l8,8.7l8.2-9.7l13.3,4.3L32.2,56.2l20-17.7
	l4.8-5l15.7-5.3L81.5,12l32.2,11.5l15.4,15l15.1,21.7L114,82.4l8.7,1l5.8,4.2l24.8,1.8l11.1,5.6l6.6,10l-27,16.2l-3.2-4.5l-19.1,17
	L136.4,138.5z"/>
</svg>
