<?xml version="1.0" encoding="utf-8"?>
<!-- Generator: Adobe Illustrator 25.4.1, SVG Export Plug-In . SVG Version: 6.00 Build 0)  -->
<svg version="1.1" id="Calque_1" xmlns="http://www.w3.org/2000/svg" xmlns:xlink="http://www.w3.org/1999/xlink" x="0px" y="0px"
	 viewBox="0 0 180 180" style="enable-background:new 0 0 180 180;" xml:space="preserve">
<style type="text/css">
    .st0{fill:#317888;}
    .st1{fill:#106A64;}
</style>
	<circle class="st0" cx="90" cy="90" r="90"/>
	<path class="st1" d="M165.1,112.9l5.8,13.4l0.2,0.1l-3.8,8.1l-4.5,7.2l-2.4,3.5l-2.8,3.1l-3.1,3.5l-3.2,3.1l-5.3,4.8l-7.8,5.3
    l-3.7,2.3l-4.4,2.3l-9.1,4.1l-7.1,2.5l-8.3,1.6l-6.9,1.1l-8.9,0.7L76.2,179l-13.1-2.4l-10.6-4l-8.4-4.7l-8.8-5.7l-4.6-4.6l1.7-4.1
    l10.6-0.7l9.5-9.2l12.1,3.8l5.2-8.1l24.7,9.7l-3.1-12.4l-9.3-18.5l-14.4,3.6l-11.2-15.2l-9.2,16.5L23,97.5l6.7-9.4l12.8,6.5
    l5.3-14.5l16.9-0.8L53.3,63.6L66,35.8l4.1-1.3l5.8-1.5l4.7-1.2l4.7-0.6l13.4,3l-4,13.3l13.4-8l7.9,19.2l10.3-2.6l8.3,2.3l8.6,11
    l3.1-2.7l11.7,8.5l8.3,14.8l-5.6-3.7l4.8,19L165.1,112.9z"/>
</svg>